<svg xmlns="http://www.w3.org/2000/svg" width="646.133" height="71.565" viewBox="0 0 170.956 18.935"><g aria-label="Auto" style="font-size:27.0612px;line-height:125%;font-family:&quot;Arial Rounded MT Bold&quot;;-inkscape-font-specification:&quot;Arial Rounded MT Bold, &quot;;letter-spacing:0;word-spacing:0;fill:#fff;stroke-width:.676532px"><path d="M25.608 143.892v4.757h-1.546v4.294h-5.364v-11.47q0-3.33 1.81-5.166 1.823-1.85 5.114-1.85 3.17 0 4.69 1.678 1.52 1.665 1.52 5.154v11.654h-5.365v-11.298q0-1.057-.25-1.466-.252-.41-.9-.41-1.255 0-1.255 1.876v2.247zM34.712 139.954h4.942v7.44q0 1.122.938 1.122.925 0 .925-1.123v-7.439h4.942v7.347q0 2.563-1.704 4.334-1.705 1.757-4.176 1.757-2.814 0-4.532-2.048-1.335-1.599-1.335-4.44zM53.74 134.907v5.047h2.22v5.22h-2.22q0 1.572.489 2.166.502.595 1.823.595v5.193q-.383.013-.568.013-1.678 0-3.171-.78-1.48-.78-2.379-2.114-1.136-1.704-1.136-4.519v-10.821zM64.64 139.492q2.802 0 4.797 2.021 2.009 2.009 2.009 4.823 0 2.854-2.035 4.863-2.022 2.008-4.889 2.008-2.867 0-4.902-2.008-2.035-2.022-2.035-4.863 0-2.894 2.035-4.862 2.035-1.982 5.02-1.982zm-.131 4.875q-.793 0-1.348.582-.555.568-.555 1.4 0 .82.555 1.401.568.581 1.348.581.793 0 1.348-.581.568-.581.568-1.4 0-.833-.555-1.401-.555-.582-1.361-.582z" style="font-family:&quot;Bauhaus 93&quot;;-inkscape-font-specification:&quot;Bauhaus 93, &quot;" transform="translate(-18.698 -134.457)"/></g><g aria-label="Scheduler" style="font-size:27.0612px;line-height:125%;font-family:&quot;Arial Rounded MT Bold&quot;;-inkscape-font-specification:&quot;Arial Rounded MT Bold, &quot;;letter-spacing:0;word-spacing:0;fill:#06d6a0;stroke-width:.676532px"><path d="M82.347 134.827v5.14q-.581-.198-.899-.198-.607 0-1.043.45-.436.449-.436 1.083 0 .542.475 1.374l.41.714q1.11 1.929 1.11 3.726 0 2.63-1.877 4.453-1.863 1.823-4.558 1.823-1.295 0-2.564-.594v-5.22q.767.49 1.361.49.7 0 1.163-.397.476-.41.476-1.018 0-.396-.753-1.73-1.203-2.115-1.203-4.229 0-2.55 1.81-4.387 1.824-1.85 4.348-1.85 1.11 0 2.18.37zM92.786 146.878l4.902-.185q-.212 2.854-2.128 4.69-1.915 1.837-4.664 1.837-2.907 0-4.915-2.021-1.996-2.022-1.996-4.955 0-2.788 2.022-4.77 2.022-1.982 4.85-1.982 2.47 0 4.36 1.559 1.89 1.559 2.352 3.977l-5.008.185q-.647-.846-1.638-.846-.846 0-1.388.555-.542.555-.542 1.401 0 .859.569 1.44.581.582 1.44.582 1.255 0 1.784-1.467zM104.783 134.907v5.51q1.256-.912 2.511-.912 1.903 0 3.013 1.374 1.123 1.374 1.123 3.713v8.35h-4.942v-6.963q0-.845-.185-1.136-.172-.29-.687-.29-.833 0-.833 1.228v7.162h-4.941v-18.036zM127.26 147.155h-7.492q-.172-.568-.172-1.043 0-.661.238-1.295h2.51q-.264-1.467-1.651-1.467-.925 0-1.507.793-.581.78-.581 2.008 0 1.282.555 2.075.568.793 1.48.793.74 0 1.427-.74l2.814 3.382q-1.969 1.546-4.373 1.546-2.934 0-4.93-1.969-1.994-1.968-1.994-4.875 0-2.894 2.008-4.89 2.022-1.995 4.955-1.995 2.867 0 4.81 1.956 1.955 1.942 1.955 4.796 0 .291-.052.925zM137.42 134.907h4.943v10.98q0 3.026-1.586 4.929-.912 1.096-2.326 1.744-1.4.647-2.88.647-2.947 0-4.968-1.982-2.022-1.982-2.022-4.862 0-2.788 2.008-4.823 2.009-2.035 4.757-2.035.436 0 1.322.08v5.443q-.608-.476-1.216-.476-.766 0-1.321.569-.542.555-.542 1.347 0 .767.568 1.322.568.541 1.361.541 1.903 0 1.903-2.629zM144.966 139.954h4.942v7.44q0 1.122.938 1.122.925 0 .925-1.123v-7.439h4.941v7.347q0 2.563-1.704 4.334-1.705 1.757-4.176 1.757-2.814 0-4.532-2.048-1.334-1.599-1.334-4.44zM164.535 134.907v18.036h-4.942v-18.036zM180.378 147.155h-7.492q-.172-.568-.172-1.043 0-.661.238-1.295h2.51q-.264-1.467-1.651-1.467-.925 0-1.507.793-.581.78-.581 2.008 0 1.282.555 2.075.568.793 1.48.793.74 0 1.427-.74l2.814 3.382q-1.968 1.546-4.373 1.546-2.934 0-4.929-1.969-1.995-1.968-1.995-4.875 0-2.894 2.008-4.89 2.022-1.995 4.955-1.995 2.868 0 4.81 1.956 1.956 1.942 1.956 4.796 0 .291-.053.925zM189.654 139.637v5.285q-.516-.29-.939-.29-1.347 0-1.347 2.061v6.25h-4.942v-7.201q0-2.855 1.56-4.546 1.558-1.704 4.161-1.704.582 0 1.507.145z" style="font-family:&quot;Bauhaus 93&quot;;-inkscape-font-specification:&quot;Bauhaus 93, &quot;" transform="translate(-18.698 -134.457)"/></g></svg>